<svg width="27" height="26" viewBox="0 0 27 26" fill="none" xmlns="http://www.w3.org/2000/svg">
<path d="M8.55888 24.1162C8.55888 24.2739 8.49622 24.4252 8.38469 24.5367C8.27316 24.6483 8.12189 24.7109 7.96416 24.7109H4.24308C3.3563 24.7099 2.50614 24.3571 1.87911 23.7301C1.25207 23.103 0.899372 22.2528 0.898375 21.366V17.9687C0.898375 17.811 0.961034 17.6597 1.07257 17.5482C1.1841 17.4366 1.33537 17.374 1.4931 17.374C1.65084 17.374 1.80211 17.4366 1.91364 17.5482C2.02517 17.6597 2.08783 17.811 2.08783 17.9687V21.366C2.08848 21.9375 2.31575 22.4853 2.71979 22.8894C3.12383 23.2935 3.67165 23.5208 4.24308 23.5215H7.96396C8.04207 23.5215 8.11943 23.5368 8.19161 23.5667C8.26379 23.5966 8.32938 23.6404 8.38462 23.6956C8.43987 23.7508 8.48369 23.8164 8.51359 23.8886C8.54349 23.9607 8.55888 24.0381 8.55888 24.1162Z" fill="#0B0B0B"/>
<path d="M24.9507 17.374C24.793 17.374 24.6417 17.4366 24.5302 17.5482C24.4186 17.6597 24.356 17.811 24.356 17.9687V21.366C24.3553 21.9375 24.128 22.4854 23.724 22.8895C23.3199 23.2935 22.772 23.5208 22.2005 23.5215H18.4797C18.3219 23.5215 18.1707 23.5841 18.0591 23.6957C17.9476 23.8072 17.8849 23.9585 17.8849 24.1162C17.8849 24.2739 17.9476 24.4252 18.0591 24.5367C18.1707 24.6483 18.3219 24.7109 18.4797 24.7109H22.2005C23.0874 24.7099 23.9376 24.3572 24.5646 23.7301C25.1917 23.1031 25.5444 22.2528 25.5454 21.366V17.9687C25.5454 17.811 25.4828 17.6597 25.3712 17.5482C25.2597 17.4366 25.1084 17.374 24.9507 17.374Z" fill="#0B0B0B"/>
<path d="M18.4797 1.9004H22.2005C22.772 1.90104 23.3199 2.12834 23.724 2.53242C24.128 2.93651 24.3553 3.48438 24.356 4.05584V7.45318C24.356 7.61092 24.4186 7.76219 24.5302 7.87372C24.6417 7.98525 24.793 8.04791 24.9507 8.04791C25.1084 8.04791 25.2597 7.98525 25.3712 7.87372C25.4828 7.76219 25.5454 7.61092 25.5454 7.45318V4.05584C25.5444 3.16902 25.1917 2.31881 24.5646 1.69174C23.9376 1.06466 23.0874 0.711934 22.2005 0.710938H18.4797C18.3219 0.710938 18.1707 0.773596 18.0591 0.88513C17.9476 0.996663 17.8849 1.14793 17.8849 1.30567C17.8849 1.4634 17.9476 1.61467 18.0591 1.7262C18.1707 1.83774 18.3219 1.9004 18.4797 1.9004Z" fill="#0B0B0B"/>
<path d="M1.4931 8.04791C1.65084 8.04791 1.80211 7.98525 1.91364 7.87372C2.02517 7.76219 2.08783 7.61092 2.08783 7.45318V4.05584C2.08848 3.48441 2.31575 2.93657 2.71979 2.53249C3.12383 2.12841 3.67165 1.90109 4.24308 1.9004H7.96396C8.12169 1.9004 8.27296 1.83774 8.38449 1.7262C8.49603 1.61467 8.55869 1.4634 8.55869 1.30567C8.55869 1.14793 8.49603 0.996663 8.38449 0.88513C8.27296 0.773596 8.12169 0.710938 7.96396 0.710938H4.24308C3.3563 0.711987 2.50614 1.06474 1.87911 1.69181C1.25207 2.31888 0.899372 3.16906 0.898375 4.05584V7.45318C0.898375 7.61092 0.961034 7.76219 1.07257 7.87372C1.1841 7.98525 1.33537 8.04791 1.4931 8.04791Z" fill="#0B0B0B"/>
<path d="M7.15527 14.6831C6.99754 14.6831 6.84627 14.7457 6.73474 14.8573C6.6232 14.9688 6.56054 15.1201 6.56054 15.2778V18.0496C6.56103 18.4753 6.73036 18.8835 7.0314 19.1845C7.33243 19.4856 7.74059 19.6549 8.16631 19.6554H18.4393C18.865 19.6549 19.2731 19.4856 19.5742 19.1845C19.8752 18.8835 20.0446 18.4753 20.045 18.0496V15.2778C20.045 15.1201 19.9824 14.9688 19.8708 14.8573C19.7593 14.7457 19.608 14.6831 19.4503 14.6831C19.2926 14.6831 19.1413 14.7457 19.0298 14.8573C18.9182 14.9688 18.8556 15.1201 18.8556 15.2778V18.0496C18.8554 18.16 18.8115 18.2658 18.7335 18.3439C18.6555 18.4219 18.5496 18.4658 18.4393 18.4659H8.16631C8.05594 18.4658 7.95013 18.4219 7.87208 18.3439C7.79404 18.2658 7.75013 18.16 7.75 18.0496V15.2778C7.75 15.1201 7.68734 14.9688 7.57581 14.8573C7.46428 14.7457 7.31301 14.6831 7.15527 14.6831Z" fill="#0B0B0B"/>
<path d="M19.4503 10.6984C19.608 10.6984 19.7593 10.6357 19.8708 10.5242C19.9824 10.4126 20.045 10.2614 20.045 10.1036V7.33186C20.0445 6.90614 19.8752 6.49799 19.5742 6.19696C19.2731 5.89593 18.865 5.72659 18.4393 5.72609H8.16631C7.74059 5.72659 7.33245 5.89593 7.03141 6.19696C6.73038 6.49799 6.56104 6.90614 6.56054 7.33186V10.1036C6.56054 10.2614 6.6232 10.4126 6.73474 10.5242C6.84627 10.6357 6.99754 10.6984 7.15527 10.6984C7.31301 10.6984 7.46428 10.6357 7.57581 10.5242C7.68734 10.4126 7.75 10.2614 7.75 10.1036V7.33186C7.75015 7.22149 7.79405 7.11568 7.8721 7.03764C7.95014 6.9596 8.05594 6.91569 8.16631 6.91555H18.4393C18.5492 6.91701 18.6543 6.96134 18.732 7.0391C18.8098 7.11686 18.8541 7.2219 18.8556 7.33186V10.1036C18.8556 10.2614 18.9182 10.4126 19.0298 10.5242C19.1413 10.6357 19.2926 10.6984 19.4503 10.6984Z" fill="#0B0B0B"/>
<path d="M25.3956 12.096H1.20996C1.13186 12.096 1.05453 12.1114 0.982371 12.1413C0.910215 12.1711 0.844652 12.215 0.789427 12.2702C0.734201 12.3254 0.690393 12.391 0.660505 12.4631C0.630617 12.5353 0.615234 12.6126 0.615234 12.6907C0.615234 12.7688 0.630617 12.8462 0.660505 12.9183C0.690393 12.9905 0.734201 13.056 0.789427 13.1113C0.844652 13.1665 0.910215 13.2103 0.982371 13.2402C1.05453 13.2701 1.13186 13.2854 1.20996 13.2854H25.3956C25.5534 13.2854 25.7046 13.2228 25.8162 13.1113C25.9277 12.9997 25.9903 12.8484 25.9903 12.6907C25.9903 12.533 25.9277 12.3817 25.8162 12.2702C25.7046 12.1586 25.5534 12.096 25.3956 12.096Z" fill="#0B0B0B"/>
<path fill-rule="evenodd" clip-rule="evenodd" d="M4.24249 25.2109C3.2233 25.2097 2.2462 24.8043 1.52554 24.0836C0.804886 23.3629 0.399521 22.3858 0.398375 21.3666L0.398375 17.9687C0.398375 17.6784 0.513712 17.3999 0.719014 17.1946C0.924315 16.9893 1.20276 16.874 1.4931 16.874C1.78344 16.874 2.06189 16.9893 2.26719 17.1946C2.4725 17.3999 2.58783 17.6784 2.58783 17.9687V21.3658C2.58841 21.8047 2.76301 22.2255 3.07336 22.5358C3.38378 22.8463 3.80467 23.0209 4.24369 23.0215H7.96379C7.96373 23.0215 7.96385 23.0215 7.96379 23.0215C8.10752 23.0215 8.25002 23.0497 8.38284 23.1047C8.51569 23.1597 8.63642 23.2403 8.73812 23.342C8.83981 23.4436 8.92048 23.5644 8.97552 23.6972C9.03055 23.83 9.05888 23.9724 9.05888 24.1162C9.05888 24.4065 8.94355 24.685 8.73825 24.8903C8.53295 25.0956 8.2545 25.2109 7.96416 25.2109H4.24249ZM7.96396 23.5215H4.24308C3.67165 23.5208 3.12383 23.2935 2.71979 22.8894C2.31575 22.4853 2.08848 21.9375 2.08783 21.366V17.9687C2.08783 17.811 2.02517 17.6597 1.91364 17.5482C1.80211 17.4366 1.65084 17.374 1.4931 17.374C1.33537 17.374 1.1841 17.4366 1.07257 17.5482C0.961034 17.6597 0.898375 17.811 0.898375 17.9687V21.366C0.899372 22.2528 1.25207 23.103 1.87911 23.7301C2.50614 24.3571 3.3563 24.7099 4.24308 24.7109H7.96416C8.12189 24.7109 8.27316 24.6483 8.38469 24.5367C8.49622 24.4252 8.55888 24.2739 8.55888 24.1162C8.55888 24.0381 8.54349 23.9607 8.51359 23.8886C8.48369 23.8164 8.43987 23.7508 8.38462 23.6956C8.32938 23.6404 8.26379 23.5966 8.19161 23.5667C8.11943 23.5368 8.04207 23.5215 7.96396 23.5215ZM22.2005 24.7109H18.4797C18.3219 24.7109 18.1707 24.6483 18.0591 24.5367C17.9476 24.4252 17.8849 24.2739 17.8849 24.1162C17.8849 23.9585 17.9476 23.8072 18.0591 23.6957C18.1707 23.5841 18.3219 23.5215 18.4797 23.5215H22.2005C22.772 23.5208 23.3199 23.2935 23.724 22.8895C24.128 22.4854 24.3553 21.9375 24.356 21.366V17.9687C24.356 17.811 24.4186 17.6597 24.5302 17.5482C24.6417 17.4366 24.793 17.374 24.9507 17.374C25.1084 17.374 25.2597 17.4366 25.3712 17.5482C25.4828 17.6597 25.5454 17.811 25.5454 17.9687V21.366C25.5444 22.2528 25.1917 23.1031 24.5646 23.7301C23.9376 24.3572 23.0874 24.7099 22.2005 24.7109ZM23.856 21.3655C23.8555 21.8045 23.6809 22.2254 23.3704 22.5359C23.0599 22.8464 22.639 23.021 22.2 23.0215H18.4797C18.1893 23.0215 17.9109 23.1368 17.7056 23.3421C17.5003 23.5474 17.3849 23.8259 17.3849 24.1162C17.3849 24.4065 17.5003 24.685 17.7056 24.8903C17.9109 25.0956 18.1893 25.2109 18.4797 25.2109H22.2005C23.2198 25.2098 24.1975 24.8044 24.9182 24.0837C25.6389 23.363 26.0443 22.3858 26.0454 21.3666V17.9687C26.0454 17.6783 25.9301 17.3999 25.7248 17.1946C25.5195 16.9893 25.2411 16.874 24.9507 16.874C24.6604 16.874 24.3819 16.9893 24.1766 17.1946C23.9713 17.3999 23.856 17.6784 23.856 17.9687V21.3655ZM22.2005 0.710938C23.0874 0.711934 23.9376 1.06466 24.5646 1.69174C25.1917 2.31881 25.5444 3.16902 25.5454 4.05584V7.45318C25.5454 7.61092 25.4828 7.76219 25.3712 7.87372C25.2597 7.98525 25.1084 8.04791 24.9507 8.04791C24.793 8.04791 24.6417 7.98525 24.5302 7.87372C24.4186 7.76219 24.356 7.61092 24.356 7.45318V4.05584C24.3553 3.48438 24.128 2.93651 23.724 2.53242C23.3199 2.12834 22.772 1.90104 22.2005 1.9004H18.4797C18.3219 1.9004 18.1707 1.83774 18.0591 1.7262C17.9476 1.61467 17.8849 1.4634 17.8849 1.30567C17.8849 1.14793 17.9476 0.996663 18.0591 0.88513C18.1707 0.773596 18.3219 0.710938 18.4797 0.710938H22.2005ZM22.2003 2.4004H18.4797C18.1893 2.4004 17.9109 2.28506 17.7056 2.07976C17.5003 1.87446 17.3849 1.59601 17.3849 1.30567C17.3849 1.01533 17.5003 0.736878 17.7056 0.531577C17.9109 0.326274 18.1893 0.210938 18.4797 0.210938H22.2005C23.2198 0.212084 24.1975 0.61748 24.9182 1.33819C25.6389 2.05889 26.0443 3.03605 26.0454 4.05528V7.45318C26.0454 7.74353 25.9301 8.02198 25.7248 8.22727C25.5195 8.43258 25.2411 8.54791 24.9507 8.54791C24.6604 8.54791 24.3819 8.43258 24.1766 8.22727C23.9713 8.02197 23.856 7.74352 23.856 7.45318V4.05641C23.8555 3.61736 23.6809 3.19643 23.3704 2.88598C23.06 2.57559 22.6392 2.40097 22.2003 2.4004ZM0.898375 4.05584C0.899372 3.16906 1.25207 2.31888 1.87911 1.69181C2.50614 1.06474 3.3563 0.711987 4.24308 0.710938H7.96396C8.12169 0.710938 8.27296 0.773596 8.38449 0.88513C8.49603 0.996663 8.55869 1.14793 8.55869 1.30567C8.55869 1.4634 8.49603 1.61467 8.38449 1.7262C8.27296 1.83774 8.12169 1.9004 7.96396 1.9004H4.24308C3.67165 1.90109 3.12383 2.12841 2.71979 2.53249C2.31575 2.93657 2.08848 3.48441 2.08783 4.05584V7.45318C2.08783 7.61092 2.02517 7.76219 1.91364 7.87372C1.80211 7.98525 1.65084 8.04791 1.4931 8.04791C1.33537 8.04791 1.1841 7.98525 1.07257 7.87372C0.961034 7.76219 0.898375 7.61092 0.898375 7.45318V4.05584ZM2.58783 4.05611C2.58841 3.61719 2.76301 3.19641 3.07336 2.88603C3.38372 2.57564 3.80449 2.401 4.24342 2.4004H7.96396C8.2543 2.4004 8.53275 2.28506 8.73805 2.07976C8.94335 1.87446 9.05869 1.59601 9.05869 1.30567C9.05869 1.01533 8.94335 0.736878 8.73805 0.531577C8.53275 0.326275 8.2543 0.210938 7.96396 0.210938L4.24308 0.210938C3.22389 0.212144 2.2462 0.617567 1.52554 1.33827C0.804886 2.05897 0.399521 3.03609 0.398375 4.05528V7.45318C0.398375 7.74352 0.513712 8.02197 0.719014 8.22727C0.924316 8.43258 1.20277 8.54791 1.4931 8.54791C1.78344 8.54791 2.06189 8.43258 2.26719 8.22727C2.4725 8.02197 2.58783 7.74352 2.58783 7.45318V4.05611ZM6.06054 18.0496L6.06054 15.2778C6.06054 14.9874 6.17588 14.709 6.38118 14.5037C6.58648 14.2984 6.86493 14.1831 7.15527 14.1831C7.44562 14.1831 7.72406 14.2984 7.92936 14.5037C8.13466 14.709 8.25 14.9874 8.25 15.2778V17.9659H18.3556V15.2778C18.3556 14.9874 18.4709 14.709 18.6762 14.5037C18.8815 14.2984 19.16 14.1831 19.4503 14.1831C19.7407 14.1831 20.0191 14.2984 20.2244 14.5037C20.4297 14.709 20.545 14.9874 20.545 15.2778V18.0496C20.5444 18.6078 20.3224 19.1434 19.9277 19.5381C19.5331 19.9328 18.998 20.1548 18.4398 20.1554H8.16631C7.60818 20.1548 7.07251 19.9328 6.67785 19.5381C6.28318 19.1434 6.06118 18.6078 6.06054 18.0496ZM18.4393 18.4659H8.16631C8.05594 18.4658 7.95013 18.4219 7.87208 18.3439C7.79404 18.2658 7.75013 18.16 7.75 18.0496V15.2778C7.75 15.1201 7.68734 14.9688 7.57581 14.8573C7.46428 14.7457 7.31301 14.6831 7.15527 14.6831C6.99754 14.6831 6.84627 14.7457 6.73474 14.8573C6.6232 14.9688 6.56054 15.1201 6.56054 15.2778V18.0496C6.56103 18.4753 6.73036 18.8835 7.0314 19.1845C7.33243 19.4856 7.74059 19.6549 8.16631 19.6554H18.4393C18.865 19.6549 19.2731 19.4856 19.5742 19.1845C19.8752 18.8835 20.0446 18.4753 20.045 18.0496V15.2778C20.045 15.1201 19.9824 14.9688 19.8708 14.8573C19.7593 14.7457 19.608 14.6831 19.4503 14.6831C19.2926 14.6831 19.1413 14.7457 19.0298 14.8573C18.9182 14.9688 18.8556 15.1201 18.8556 15.2778V18.0496C18.8554 18.16 18.8115 18.2658 18.7335 18.3439C18.6555 18.4219 18.5496 18.4658 18.4393 18.4659ZM20.545 7.33186V10.1036C20.545 10.394 20.4297 10.6724 20.2244 10.8777C20.0191 11.083 19.7406 11.1984 19.4503 11.1984C19.16 11.1984 18.8815 11.083 18.6762 10.8777C18.4709 10.6724 18.3556 10.394 18.3556 10.1036V7.41555H8.25V10.1036C8.25 10.394 8.13467 10.6724 7.92936 10.8777C7.72406 11.083 7.44561 11.1984 7.15527 11.1984C6.86493 11.1984 6.58649 11.083 6.38118 10.8777C6.17588 10.6724 6.06054 10.394 6.06054 10.1036V7.33186C6.0612 6.77373 6.2832 6.23806 6.67786 5.84341C7.07252 5.44875 7.6076 5.22674 8.16573 5.22609L18.4393 5.22609C18.9974 5.22674 19.5331 5.44875 19.9277 5.84341C20.3224 6.23806 20.5444 6.77373 20.545 7.33186ZM7.75 7.33186C7.75015 7.22149 7.79405 7.11568 7.8721 7.03764C7.95014 6.9596 8.05594 6.91569 8.16631 6.91555H18.4393C18.5492 6.91701 18.6543 6.96134 18.732 7.0391C18.8098 7.11686 18.8541 7.2219 18.8556 7.33186V10.1036C18.8556 10.2614 18.9182 10.4126 19.0298 10.5242C19.1413 10.6357 19.2926 10.6984 19.4503 10.6984C19.608 10.6984 19.7593 10.6357 19.8708 10.5242C19.9824 10.4126 20.045 10.2614 20.045 10.1036V7.33186C20.0445 6.90614 19.8752 6.49799 19.5742 6.19696C19.2731 5.89593 18.865 5.72659 18.4393 5.72609H8.16631C7.74059 5.72659 7.33245 5.89593 7.03141 6.19696C6.73038 6.49799 6.56104 6.90614 6.56054 7.33186V10.1036C6.56054 10.2614 6.6232 10.4126 6.73474 10.5242C6.84627 10.6357 6.99754 10.6984 7.15527 10.6984C7.31301 10.6984 7.46428 10.6357 7.57581 10.5242C7.68734 10.4126 7.75 10.2614 7.75 10.1036V7.33186ZM1.20996 11.596H25.3956C25.686 11.596 25.9644 11.7113 26.1697 11.9166C26.375 12.1219 26.4903 12.4004 26.4903 12.6907C26.4903 12.9811 26.375 13.2595 26.1697 13.4648C25.9644 13.6701 25.686 13.7854 25.3956 13.7854H1.20996C1.0662 13.7854 0.923848 13.7571 0.791029 13.7021C0.658206 13.6471 0.537525 13.5665 0.435873 13.4648C0.334219 13.3632 0.253581 13.2425 0.198566 13.1096C0.14355 12.9768 0.115234 12.8345 0.115234 12.6907C0.115234 12.547 0.143551 12.4046 0.198566 12.2718C0.253581 12.139 0.334219 12.0183 0.435873 11.9166C0.537527 11.815 0.658209 11.7343 0.791029 11.6793C0.923848 11.6243 1.0662 11.596 1.20996 11.596ZM1.20996 12.096H25.3956C25.5534 12.096 25.7046 12.1586 25.8162 12.2702C25.9277 12.3817 25.9903 12.533 25.9903 12.6907C25.9903 12.8484 25.9277 12.9997 25.8162 13.1113C25.7046 13.2228 25.5534 13.2854 25.3956 13.2854H1.20996C1.13186 13.2854 1.05453 13.2701 0.982371 13.2402C0.910215 13.2103 0.844652 13.1665 0.789427 13.1113C0.734201 13.056 0.690393 12.9905 0.660505 12.9183C0.630617 12.8462 0.615234 12.7688 0.615234 12.6907C0.615234 12.6126 0.630617 12.5353 0.660505 12.4631C0.690393 12.391 0.734201 12.3254 0.789427 12.2702C0.844652 12.215 0.910215 12.1711 0.982371 12.1413C1.05453 12.1114 1.13186 12.096 1.20996 12.096Z" fill="#0B0B0B"/>
</svg>
