<svg width="25" height="25" viewBox="0 0 25 25" fill="none" xmlns="http://www.w3.org/2000/svg">
<g clip-path="url(#clip0_3049_278)">
<path d="M4.30272 8.71095C6.1667 8.71095 7.7327 7.43628 8.1767 5.71095H23.3027C23.855 5.71095 24.3027 5.26325 24.3027 4.71097C24.3027 4.15864 23.855 3.71094 23.3027 3.71094H8.17675C7.73275 1.98561 6.16675 0.710938 4.30277 0.710938C2.09345 0.710938 0.302734 2.50166 0.302734 4.71092C0.302734 6.92019 2.09345 8.71095 4.30272 8.71095ZM4.30272 2.71095C5.40742 2.71095 6.30273 3.60622 6.30273 4.71097C6.30273 5.81572 5.40747 6.71094 4.30272 6.71094C3.19797 6.71094 2.3027 5.81567 2.3027 4.71092C2.3027 3.60617 3.19802 2.71095 4.30272 2.71095Z" fill="#0B0B0B"/>
<path d="M20.3027 16.7109C18.4388 16.7109 16.8728 17.9856 16.4288 19.7109H1.30272C0.750438 19.7109 0.302734 20.1587 0.302734 20.711C0.302734 21.2632 0.750438 21.711 1.30272 21.711H16.4287C16.8727 23.4363 18.4387 24.711 20.3027 24.711C22.512 24.711 24.3027 22.9202 24.3027 20.711C24.3027 18.5017 22.512 16.7109 20.3027 16.7109ZM20.3027 22.7109C19.198 22.7109 18.3027 21.8157 18.3027 20.7109C18.3027 19.6062 19.198 18.711 20.3027 18.711C21.4075 18.711 22.3028 19.6062 22.3028 20.711C22.3028 21.8157 21.4075 22.7109 20.3027 22.7109Z" fill="#0B0B0B"/>
<path d="M23.3027 11.7109H16.1767C15.7327 9.98561 14.1667 8.71094 12.3027 8.71094C10.4387 8.71094 8.87275 9.98561 8.42875 11.7109H1.30272C0.750437 11.7109 0.302734 12.1586 0.302734 12.7109C0.302734 13.2632 0.750437 13.7109 1.30272 13.7109H8.4287C8.8727 15.4362 10.4387 16.7109 12.3027 16.7109C14.1667 16.7109 15.7327 15.4362 16.1767 13.7109H23.3027C23.8549 13.7109 24.3026 13.2632 24.3026 12.7109C24.3026 12.1586 23.855 11.7109 23.3027 11.7109ZM12.3027 14.7109C11.198 14.7109 10.3027 13.8157 10.3027 12.7109C10.3027 11.6062 11.198 10.7109 12.3027 10.7109C13.4075 10.7109 14.3027 11.6062 14.3027 12.7109C14.3027 13.8157 13.4074 14.7109 12.3027 14.7109Z" fill="#0B0B0B"/>
</g>
<defs>
<clipPath id="clip0_3049_278">
<rect width="24" height="24" fill="white" transform="translate(0.302734 0.710938)"/>
</clipPath>
</defs>
</svg>
